<?xml version="1.0" encoding="iso-8859-1"?>
<!-- Generator: Adobe Illustrator 19.0.0, SVG Export Plug-In . SVG Version: 6.00 Build 0)  -->
<svg version="1.1" id="Layer_1" xmlns="http://www.w3.org/2000/svg" xmlns:xlink="http://www.w3.org/1999/xlink" x="0px" y="0px"
	 viewBox="0 0 512.001 512.001" style="enable-background:new 0 0 512.001 512.001;" xml:space="preserve">
<polygon style="fill:#FF8C29;" points="402.585,504.018 408.606,431.759 480.864,425.737 300.218,245.092 221.939,323.372 "/>
<polygon style="fill:#FD6A33;" points="261.28,284.031 221.939,323.372 402.585,504.017 408.606,431.759 408.977,431.728 "/>
<polygon style="fill:#FF8C29;" points="109.42,504.018 103.398,431.759 31.139,425.737 211.785,245.092 290.065,323.372 "/>
<polygon style="fill:#FD6A33;" points="103.026,431.728 103.398,431.759 109.42,504.017 290.065,323.372 250.724,284.031 "/>
<polygon style="fill:#4ACFD9;" points="257.235,7.985 309.927,52.198 378.711,52.198 390.655,119.937 443.347,164.151 
	408.956,223.721 420.9,291.46 356.264,314.986 321.871,374.554 257.235,351.028 192.599,374.554 158.206,314.986 93.571,291.46 
	105.515,223.721 71.122,164.151 123.814,119.937 135.759,52.198 204.543,52.198 "/>
<circle style="fill:#FD6A33;" cx="256.005" cy="195.723" r="119.22"/>
<polygon style="fill:#E6EAEA;" points="255.566,111.215 275.567,172.769 340.289,172.769 287.928,210.812 307.928,272.366 
	255.566,234.323 203.205,272.366 223.205,210.812 170.844,172.769 235.566,172.769 "/>
<polygon style="fill:#4ACFD9;" points="443.347,164.151 390.655,119.937 378.711,52.198 309.927,52.198 257.235,7.985 
	256.002,9.019 256.002,351.478 257.235,351.028 321.872,374.554 356.264,314.986 420.9,291.46 408.956,223.721 "/>
<polygon style="fill:#0295AA;" points="204.543,52.198 135.759,52.198 123.814,119.937 71.122,164.151 105.515,223.721 
	93.571,291.46 158.206,314.986 192.599,374.554 256.002,351.478 256.002,9.019 "/>
<path style="fill:#F0353D;" d="M136.782,195.724c0,65.844,53.377,119.22,119.22,119.22V76.504
	C190.158,76.504,136.782,129.881,136.782,195.724z"/>
<path style="fill:#FF8C29;" d="M256.002,76.504v238.44c65.844,0,119.22-53.377,119.22-119.22S321.845,76.504,256.002,76.504z"/>
<polygon style="fill:#FFFFFF;" points="287.928,210.812 340.289,172.769 275.567,172.769 256.002,112.553 256.002,234.639 
	307.928,272.366 "/>
<polygon style="fill:#FFD1A9;" points="255.566,111.214 235.566,172.769 170.844,172.769 223.205,210.812 203.205,272.366 
	255.566,234.323 256.002,234.639 256.002,112.553 "/>
<path d="M486.509,420.091L380.924,314.505l42.706-15.543c3.64-1.325,5.805-5.073,5.131-8.889l-11.44-64.877l32.939-57.053
	c1.937-3.355,1.186-7.617-1.782-10.107l-50.466-42.345l-11.44-64.878c-0.673-3.815-3.987-6.596-7.862-6.596h-65.88L262.367,1.868
	c-2.969-2.491-7.296-2.491-10.265,0l-50.465,42.347h-65.879c-3.875,0-7.189,2.781-7.862,6.596l-11.44,64.877l-50.467,42.347
	c-2.968,2.49-3.719,6.752-1.782,10.107l32.94,57.053l-11.44,64.877c-0.674,3.816,1.49,7.563,5.131,8.889l40.899,14.885
	L25.492,420.091c-2.197,2.198-2.92,5.473-1.85,8.392c1.069,2.919,3.735,4.951,6.833,5.21l65.527,5.462l5.462,65.526
	c0.258,3.098,2.29,5.764,5.209,6.833c0.896,0.329,1.824,0.488,2.745,0.488c2.081,0,4.123-0.814,5.647-2.338l140.936-140.936
	l140.936,140.936c1.525,1.524,3.566,2.338,5.647,2.338c0.921,0,1.85-0.159,2.745-0.488c2.919-1.069,4.951-3.735,5.208-6.833
	L416,439.155l65.526-5.462c3.098-0.258,5.764-2.29,6.833-5.21C489.429,425.564,488.706,422.29,486.509,420.091z M112.429,219.729
	l-31.044-53.768l47.562-39.908c1.438-1.206,2.405-2.88,2.729-4.728l10.781-61.142h62.085c1.878,0,3.695-0.661,5.132-1.868
	l47.56-39.908l47.56,39.908c1.438,1.207,3.255,1.868,5.132,1.868h62.086l10.781,61.142c0.326,1.848,1.292,3.523,2.729,4.728
	l47.561,39.908l-31.043,53.768c-0.939,1.625-1.274,3.53-0.948,5.379l10.782,61.141l-48.188,17.539l-10.154,3.696
	c-1.763,0.643-3.244,1.885-4.183,3.511l-31.042,53.768l-54.55-19.854c-0.004-0.002-0.01-0.002-0.014-0.004l-3.781-1.375
	c-1.763-0.643-3.697-0.643-5.46,0l-5.6,2.038l-52.741,19.195l-31.043-53.768c-0.939-1.625-2.42-2.868-4.183-3.511l-11.96-4.354
	l-46.381-16.88l10.782-61.141C113.703,223.259,113.368,221.354,112.429,219.729z M111.353,431.095
	c-0.324-3.885-3.406-6.969-7.293-7.293l-55.105-4.593l99.338-99.338l4.451,1.62l32.939,57.053c1.46,2.529,4.13,3.993,6.916,3.993
	c0.91,0,1.832-0.156,2.729-0.482l38.927-14.168L115.946,486.201L111.353,431.095z M407.942,423.804
	c-3.885,0.324-6.969,3.406-7.293,7.293l-4.592,55.105L276.334,366.476l42.806,15.581c0.897,0.327,1.819,0.482,2.729,0.482
	c2.786,0,5.456-1.464,6.916-3.993l32.938-57.053l2.644-0.962l98.68,98.68L407.942,423.804z"/>
<path d="M256.002,322.928c70.141,0,127.204-57.063,127.204-127.204S326.142,68.521,256.002,68.521s-127.204,57.063-127.204,127.204
	S185.862,322.928,256.002,322.928z M256.002,84.488c61.335,0,111.237,49.901,111.237,111.237s-49.901,111.237-111.237,111.237
	S144.765,257.06,144.765,195.724S194.666,84.488,256.002,84.488z"/>
<path d="M195.614,269.899c-1.069,3.289,0.102,6.893,2.901,8.926c1.399,1.017,3.045,1.525,4.692,1.525s3.293-0.509,4.692-1.525
	l47.669-34.632l47.668,34.632c2.798,2.033,6.587,2.033,9.384,0c2.798-2.032,3.968-5.636,2.901-8.926l-18.208-56.039l47.669-34.633
	c2.798-2.032,3.968-5.636,2.901-8.926c-1.069-3.29-4.134-5.517-7.593-5.517h-58.922l-18.207-56.038
	c-1.069-3.29-4.134-5.517-7.593-5.517c-3.458,0-6.524,2.227-7.593,5.517l-18.208,56.038h-58.922c-3.458,0-6.524,2.227-7.593,5.517
	c-1.069,3.289,0.102,6.893,2.901,8.926l47.669,34.633L195.614,269.899z M195.414,180.752h40.153c3.458,0,6.524-2.227,7.593-5.517
	l12.407-38.186l12.406,38.186c1.069,3.29,4.134,5.517,7.593,5.517h40.153l-32.484,23.601c-2.798,2.032-3.969,5.636-2.901,8.926
	l12.407,38.186l-32.483-23.599c-2.798-2.033-6.587-2.033-9.384,0l-32.484,23.6l12.407-38.187c1.069-3.289-0.102-6.893-2.901-8.926
	L195.414,180.752z"/>
<g>
</g>
<g>
</g>
<g>
</g>
<g>
</g>
<g>
</g>
<g>
</g>
<g>
</g>
<g>
</g>
<g>
</g>
<g>
</g>
<g>
</g>
<g>
</g>
<g>
</g>
<g>
</g>
<g>
</g>
</svg>
