<?xml version="1.0" encoding="iso-8859-1"?>
<!-- Generator: Adobe Illustrator 19.0.0, SVG Export Plug-In . SVG Version: 6.00 Build 0)  -->
<svg version="1.1" id="Layer_1" xmlns="http://www.w3.org/2000/svg" xmlns:xlink="http://www.w3.org/1999/xlink" x="0px" y="0px"
	 viewBox="0 0 508 508" style="enable-background:new 0 0 508 508;" xml:space="preserve">
<circle style="fill:#FD8469;" cx="254" cy="254" r="254"/>
<path style="fill:#FFFFFF;" d="M254,487.6c-95.6,0-173.6-78-173.6-173.6s78-173.6,173.6-173.6s173.6,78,173.6,173.6
	S349.6,487.6,254,487.6z M254,152.4c-89.2,0-161.6,72.4-161.6,161.6S164.8,475.6,254,475.6S415.6,403.2,415.6,314
	S343.2,152.4,254,152.4z"/>
<path style="fill:#2B3B4E;" d="M486.8,407.6l-63.2-32.4h-23.2h-23.2L314,407.6l-4.8,31.2c21.2,27.2,54,44.8,91.2,44.8
	s70.4-17.6,91.2-44.8L486.8,407.6z"/>
<g>
	<polygon style="fill:#324A5E;" points="423.6,375.2 441.2,394 431.2,401.6 443.6,408 400.4,476 	"/>
	<polygon style="fill:#324A5E;" points="377.2,375.2 360,394 370,401.6 357.6,408 400.4,476 	"/>
</g>
<g>
	<polygon style="fill:#E6E9EE;" points="423.6,375.2 400.4,476 377.2,375.2 	"/>
	<polygon style="fill:#E6E9EE;" points="423.6,375.2 409.6,436 400.4,476 391.2,436 377.2,375.2 	"/>
</g>
<g>
	<path style="fill:#F1543F;" d="M400.8,390C400.8,390,400.4,390,400.8,390C400.4,390,400.4,390,400.8,390L400.8,390z"/>
	<path style="fill:#F1543F;" d="M411.2,392.8l-4,8.8h-13.6l-4-8.8c5.2-3.2,10.8-2.4,10.8-2.4S406,389.6,411.2,392.8z"/>
</g>
<polygon style="fill:#FF7058;" points="409.6,436 400.4,476 391.2,436 393.6,401.2 407.2,401.2 "/>
<path style="fill:#F9B54C;" d="M419.6,364.4c-0.8,4-4,12.4-18.8,25.6c-12.8-12.4-17.2-20.8-18.4-24.8c5.2,6.8,11.6,11.2,18.4,11.2
	C407.6,376.4,414.4,371.6,419.6,364.4z"/>
<g>
	<path style="fill:#FFFFFF;" d="M419.6,362c0,0,2.4,8.8-19.2,28.4c0,0,13.6-1.6,18.8,12.4C419.6,402.8,431.6,376,419.6,362z"/>
	<path style="fill:#FFFFFF;" d="M381.2,362c-12,14.4,0,40.8,0,40.8c5.2-14,18.8-12.4,18.8-12.4C381.2,372,381.2,362,381.2,362z"/>
</g>
<path style="fill:#FFD05B;" d="M432.8,344.8c-1.6,2.4-3.6,4.4-5.6,5.2c-5.2,14.4-15.2,26.4-26.8,26.4c-11.6,0-21.2-12-26.8-26.4
	c-2-0.8-4.4-2.4-5.6-5.2c-2.8-4.4-2.8-9.2,0-10.8c0.4,0,0.4-0.4,0.8-0.4c0.4,3.2,1.2,6,2.4,8.4c0,0,2.4,4.4,2.8,8.4
	c0-4.4-0.4-13.6,1.2-15.2c0,0,6.4-11.2,1.6-20.8c0,0,1.2-14.4,17.2-8c0,0,3.2,0.8,6.4,0.8l0,0l0,0l0,0l0,0c3.2-0.4,6.4-0.8,6.4-0.8
	c16.4-6.8,17.2,8,17.2,8c-4.8,9.6,1.6,20.8,1.6,20.8c1.6,1.6,1.2,10.8,1.2,15.2c0.8-4,2.8-8.4,2.8-8.4c1.2-2.4,1.6-5.2,2.4-8.4
	c0.4,0,0.4,0,0.8,0.4C435.6,335.6,435.6,340.4,432.8,344.8z"/>
<path style="fill:#324A5E;" d="M434.8,300.4c-0.8-1.6-5.2,0.8-5.2,0.8c0.4-3.2-1.2-10.4-1.2-10.4c-0.8,2.4-3.6,2.8-3.6,2.8
	c0.4-2.4-2.4-8.8-2.4-8.8c0.4,2.8-3.6,5.6-3.6,5.6c0.8-2.4-4.8-10.4-4.8-10.4c0.8,1.2,0.4,4.8,0.4,4.8c-2-4.4-7.6-8.4-7.6-8.4
	c0,1.2-0.8,2-1.6,3.2c-1.2-2.8-4.4-4-4.8-4.4l0,0l0,0l0,0l0,0l0,0l0,0l0,0l0,0l0,0c-0.4,0.4-3.6,1.6-4.8,4.4c-0.8-0.8-1.2-2-1.2-3.2
	c0,0-5.6,4-7.6,8.4c0,0-0.4-3.6,0.4-4.8c0,0-5.6,8.4-4.8,10.4c0,0-4-2.8-3.6-5.6c0,0-2.8,6.4-2.4,8.8c0,0-2.8-0.4-3.6-2.8
	c0,0-2,7.2-1.2,10.4c0,0-4.4-2.4-5.2-0.8c0,0,4,4.4,2,8.4c0,0-1.6,22,3.2,33.6c0,0,2.4,4.4,2.8,8.4c0-4.4-0.4-13.6,1.2-15.2
	c0,0,6.4-11.2,1.6-20.8c0,0,1.2-14.4,17.2-8c0,0,3.2,0.8,6.4,0.8l0,0l0,0l0,0l0,0c3.2-0.4,6.4-0.8,6.4-0.8c16.4-6.8,17.2,8,17.2,8
	c-4.8,9.6,1.6,20.8,1.6,20.8c1.6,1.6,1.2,10.8,1.2,15.2c0.8-4,2.8-8.4,2.8-8.4c4.8-11.6,3.2-33.6,3.2-33.6
	C430.8,304.8,434.8,300.4,434.8,300.4z"/>
<path style="fill:#2B3B4E;" d="M194,407.6l-63.2-32.4h-23.2H84.4l-63.2,32.4l-4.8,31.2c21.2,27.2,54,44.8,91.2,44.8
	s70.4-17.6,91.2-44.8L194,407.6z"/>
<g>
	<polygon style="fill:#324A5E;" points="130.8,375.2 148,394 138,401.6 150.4,408 107.6,476 	"/>
	<polygon style="fill:#324A5E;" points="84.4,375.2 66.8,394 76.8,401.6 64.4,408 107.6,476 	"/>
</g>
<g>
	<polygon style="fill:#E6E9EE;" points="130.8,375.2 107.6,476 84.4,375.2 	"/>
	<polygon style="fill:#E6E9EE;" points="130.8,375.2 116.8,436 107.6,476 98.4,436 84.4,375.2 	"/>
</g>
<g>
	<path style="fill:#F1543F;" d="M107.6,390L107.6,390C107.6,390,107.2,390,107.6,390L107.6,390z"/>
	<path style="fill:#F1543F;" d="M118.4,392.8l-4,8.8h-13.6l-4-8.8c5.2-3.2,10.8-2.4,10.8-2.4S112.8,389.6,118.4,392.8z"/>
</g>
<polygon style="fill:#FF7058;" points="116.8,436 107.6,476 98.4,436 100.8,401.2 114.4,401.2 "/>
<path style="fill:#F9B54C;" d="M126.4,364.4c-0.8,4-4,12.4-18.8,25.6c-12.8-12.4-17.2-20.8-18.4-24.8c5.2,6.8,11.6,11.2,18.4,11.2
	C114.8,376.4,121.2,371.6,126.4,364.4z"/>
<g>
	<path style="fill:#FFFFFF;" d="M126.4,362c0,0,2.4,8.8-19.2,28.4c0,0,13.6-1.6,18.8,12.4C126.4,402.8,138.8,376,126.4,362z"/>
	<path style="fill:#FFFFFF;" d="M88.4,362c-12,14.4,0,40.8,0,40.8c5.2-14,18.8-12.4,18.8-12.4C88,372,88.4,362,88.4,362z"/>
</g>
<path style="fill:#FFD05B;" d="M140,344.8c-1.6,2.4-3.6,4.4-5.6,5.2c-5.2,14.4-15.2,26.4-26.8,26.4s-21.2-12-26.8-26.4
	c-2-0.8-4.4-2.4-5.6-5.2c-2.8-4.4-2.8-9.2,0-10.8c0.4,0,0.4-0.4,0.8-0.4c0.4,3.2,1.2,6,2.4,8.4c0,0,2.4,4.4,2.8,8.4
	c0-4.4-0.4-13.6,1.2-15.2c0,0,6.4-11.2,1.6-20.8c0,0,1.2-14.4,17.2-8c0,0,3.2,0.8,6.4,0.8l0,0l0,0l0,0l0,0c3.2-0.4,6.4-0.8,6.4-0.8
	c16.4-6.8,17.2,8,17.2,8c-4.8,9.6,1.6,20.8,1.6,20.8c1.2,1.6,1.2,10.8,1.2,15.2c0.8-4,2.8-8.4,2.8-8.4c1.2-2.4,1.6-5.2,2.4-8.4
	c0.4,0,0.4,0,0.8,0.4C142.4,335.6,142.4,340.4,140,344.8z"/>
<path style="fill:#324A5E;" d="M142,300.4c-0.8-1.6-5.2,0.8-5.2,0.8c0.4-3.2-1.2-10.4-1.2-10.4c-0.8,2.4-3.6,2.8-3.6,2.8
	c0.4-2.4-2.4-8.8-2.4-8.8c0.4,2.8-3.6,5.6-3.6,5.6c0.8-2.4-4.8-10.4-4.8-10.4c0.8,1.2,0.4,4.8,0.4,4.8c-2-4.4-7.6-8.4-7.6-8.4
	c0,1.2-0.8,2-1.6,3.2c-1.2-2.8-4.4-4-4.8-4.4l0,0l0,0l0,0l0,0l0,0l0,0l0,0l0,0l0,0c-0.4,0.4-3.6,1.6-4.8,4.4c-0.8-0.8-1.2-2-1.2-3.2
	c0,0-5.6,4-7.6,8.4c0,0-0.4-3.6,0.4-4.8c0,0-5.6,8.4-4.8,10.4c0,0-4-2.8-3.6-5.6c0,0-2.8,6.4-2.4,8.8c0,0-2.8-0.4-3.6-2.8
	c0,0-2,7.2-1.2,10.4c0,0-4.4-2.4-5.2-0.8c0,0,4,4.4,2,8.4c0,0-1.6,22,3.2,33.6c0,0,2.4,4.4,2.8,8.4c0-4.4-0.4-13.6,1.2-15.2
	c0,0,6.4-11.2,1.6-20.8c0,0,1.2-14.4,17.2-8c0,0,3.2,0.8,6.4,0.8l0,0l0,0l0,0l0,0c3.2-0.4,6.4-0.8,6.4-0.8c16.4-6.8,17.2,8,17.2,8
	c-4.8,9.6,1.6,20.8,1.6,20.8c0.8,1.2,0.8,10.4,0.8,14.8c0.8-4,2.8-8.4,2.8-8.4c4.8-11.6,3.2-33.6,3.2-33.6
	C138,304.8,142,300.4,142,300.4z"/>
<path style="fill:#2B3B4E;" d="M340.4,152.8l-63.2-32.4H254h-23.2l-63.2,32.4l-4.8,31.2c21.2,27.2,54,44.8,91.2,44.8
	s70.4-17.6,91.2-44.8L340.4,152.8z"/>
<g>
	<polygon style="fill:#324A5E;" points="277.2,120 294.4,139.2 284.8,146.4 296.8,153.2 254,220.8 	"/>
	<polygon style="fill:#324A5E;" points="230.8,120 213.6,139.2 223.2,146.4 211.2,153.2 254,220.8 	"/>
</g>
<g>
	<polygon style="fill:#E6E9EE;" points="277.2,120 254,220.8 230.8,120 	"/>
	<polygon style="fill:#E6E9EE;" points="277.2,120.4 263.2,180.8 254,220.8 244.8,180.8 230.8,120.4 	"/>
</g>
<g>
	<path style="fill:#F1543F;" d="M254,135.2L254,135.2L254,135.2L254,135.2z"/>
	<path style="fill:#F1543F;" d="M264.8,137.6l-4,8.8h-13.6l-4-8.8c5.2-3.2,10.8-2.4,10.8-2.4S259.6,134.4,264.8,137.6z"/>
</g>
<polygon style="fill:#FF7058;" points="263.2,180.8 254,220.8 244.8,180.8 247.2,146.4 260.8,146.4 "/>
<path style="fill:#F9B54C;" d="M272.8,109.6c-0.8,4-4,12.4-18.8,25.6c-12.8-12.4-17.2-20.8-18.4-24.8c5.2,6.8,11.6,11.2,18.4,11.2
	C261.2,121.2,267.6,116.8,272.8,109.6z"/>
<g>
	<path style="fill:#FFFFFF;" d="M273.2,106.8c0,0,2.4,8.8-19.2,28.4c0,0,13.6-1.6,18.8,12.4C272.8,147.6,285.2,121.2,273.2,106.8z"
		/>
	<path style="fill:#FFFFFF;" d="M234.8,106.8c-12,14.4,0,40.8,0,40.8c5.2-14,18.8-12.4,18.8-12.4
		C234.4,116.8,234.8,106.8,234.8,106.8z"/>
</g>
<path style="fill:#FFD05B;" d="M286.4,90c-1.6,2.4-3.6,4.4-5.6,5.2c-5.2,14.4-15.2,26.4-26.8,26.4c-11.6,0-21.2-12-26.8-26.4
	c-2-0.8-4.4-2.4-5.6-5.2c-2.8-4.4-2.8-9.2,0-10.8c0.4,0,0.4-0.4,0.8-0.4c0.4,3.2,1.2,6,2.4,8.4c0,0,2.4,4.4,2.8,8.4
	c0-4.4-0.4-13.6,1.2-15.2c0,0,6.4-11.2,1.6-20.8c0,0,1.2-14.4,17.2-8c0,0,3.2,0.8,6.4,0.8l0,0l0,0l0,0l0,0c3.2-0.4,6.4-0.8,6.4-0.8
	c16.4-6.8,17.2,8,17.2,8c-4.8,9.6,1.6,20.8,1.6,20.8c1.6,1.6,1.2,10.8,1.2,15.2c0.8-4,2.8-8.4,2.8-8.4c1.2-2.4,1.6-5.2,2.4-8.4
	c0.4,0,0.4,0,0.8,0.4C289.2,80.8,289.2,85.6,286.4,90z"/>
<path style="fill:#324A5E;" d="M288.4,45.2c-0.8-1.6-5.2,0.8-5.2,0.8c0.4-3.2-1.2-10.4-1.2-10.4c-0.8,2.4-3.6,2.8-3.6,2.8
	C278.8,36,276,30,276,30c0.4,2.8-3.6,5.6-3.6,5.6c0.8-2.4-4.8-10.4-4.8-10.4c0.8,1.2,0.4,4.8,0.4,4.8c-2-4.4-7.6-8.4-7.6-8.4
	c0,1.2-0.8,2-1.6,3.2c-1.2-2.8-4.4-4-4.8-4.4l0,0l0,0l0,0l0,0l0,0l0,0l0,0l0,0l0,0c-0.4,0.4-3.6,1.6-4.8,4.4c-0.8-0.8-1.2-2-1.2-3.2
	c0,0-5.6,4-7.6,8.4c0,0-0.4-3.6,0.4-4.8c0,0-5.6,8.4-4.8,10.4c0,0-4-2.8-3.6-5.6c0,0-2.8,6.4-2.4,8.8c0,0-2.8-0.4-3.6-2.8
	c0,0-2,7.2-1.2,10.4c0,0-4.4-2.4-5.2-0.8c0,0,4,4.4,2,8.4c0,0-1.6,22,3.2,33.6c0,0,2.4,4.4,2.8,8.4c0-4.4-0.4-13.6,1.2-15.2
	c0,0,6.4-11.2,1.6-20.8c0,0,1.2-14.4,17.2-8c0,0,3.2,0.8,6.4,0.8l0,0l0,0l0,0l0,0c3.2-0.4,6.4-0.8,6.4-0.8c16.4-6.8,17.2,8,17.2,8
	c-4.8,9.6,1.6,20.8,1.6,20.8c1.6,1.6,1.2,10.8,1.2,15.2c0.8-4,2.8-8.4,2.8-8.4c4.8-11.6,3.2-33.6,3.2-33.6
	C284.4,49.6,288.4,45.2,288.4,45.2z"/>
<g>
</g>
<g>
</g>
<g>
</g>
<g>
</g>
<g>
</g>
<g>
</g>
<g>
</g>
<g>
</g>
<g>
</g>
<g>
</g>
<g>
</g>
<g>
</g>
<g>
</g>
<g>
</g>
<g>
</g>
</svg>
